<svg xmlns="http://www.w3.org/2000/svg" xmlns:xlink="http://www.w3.org/1999/xlink" width="561.993" height="66.723" viewBox="0 0 561.993 66.723">
  <defs>
    <clipPath id="clip-path">
      <rect id="Rectángulo_55" data-name="Rectángulo 55" width="561.993" height="66.723" fill="#14fe7d"/>
    </clipPath>
  </defs>
  <g id="Grupo_5" data-name="Grupo 5" clip-path="url(#clip-path)">
    <path id="Trazado_17" data-name="Trazado 17" d="M158.359.9C135.727.9,119.01,14.964,119.01,34c0,18.792,16.846,32.854,39.349,32.854,22.89,0,39.478-13.441,39.478-32.854,0-19.787-16.588-33.1-39.478-33.1m0,49.779c-12.216,0-21.346-6.969-21.346-16.676,0-9.956,9-17.049,21.346-17.049,12.86,0,21.475,7.093,21.475,17.049,0,9.707-8.615,16.676-21.475,16.676" transform="translate(-17.823 -0.135)" fill="#14fe7d"/>
    <path id="Trazado_18" data-name="Trazado 18" d="M589.669,2.4l-1.817,8.253C581.236,4.152,571.635.526,560.737.526c-21.666,0-37.752,14.131-37.752,33.263,0,18.883,16.217,33.013,37.752,33.013,11.028,0,20.5-3.751,27.115-10.129l1.817,8.253h16.087V2.4ZM564.63,51.3c-13.622,0-23.482-7.378-23.482-17.507,0-10.379,9.86-17.882,23.482-17.882s22.963,7.378,22.963,17.882c0,10.38-9.211,17.507-22.963,17.507" transform="translate(-78.324 -0.079)" fill="#14fe7d"/>
    <path id="Trazado_19" data-name="Trazado 19" d="M471.107,18.6,469.186,2.308h-16V64.966h17.923V47.171c0-17.545,11.138-28.2,30.213-28.2V.428A33.041,33.041,0,0,0,471.107,18.6" transform="translate(-67.87 -0.064)" fill="#14fe7d"/>
    <path id="Trazado_20" data-name="Trazado 20" d="M405.167,2.373,403.35,10.63C396.731,4.125,387.127.5,376.226.5c-21.674,0-37.767,14.136-37.767,33.276,0,18.889,16.223,33.025,37.767,33.025,11.032,0,20.505-3.753,27.124-10.133l1.817,8.257H421.26V2.373ZM380.119,51.286c-13.627,0-23.49-7.381-23.49-17.513,0-10.383,9.864-17.889,23.49-17.889s22.972,7.381,22.972,17.889c0,10.383-9.215,17.513-22.972,17.513" transform="translate(-50.689 -0.074)" fill="#14fe7d"/>
    <path id="Trazado_21" data-name="Trazado 21" d="M0,65.1C0,29.781,17.06,1.147,38.105,1.147S76.21,29.781,76.21,65.1H95.936c0-35.322-17.06-63.957-38.105-63.957S19.726,29.781,19.726,65.1Z" transform="translate(0 -0.172)" fill="#14fe7d"/>
    <path id="Trazado_22" data-name="Trazado 22" d="M314.152,2.827c0,35.523-17.06,64.32-38.105,64.32s-38.105-28.8-38.105-64.32H218.216c0,35.523,17.06,64.32,38.105,64.32s38.105-28.8,38.105-64.32Z" transform="translate(-32.681 -0.423)" fill="#14fe7d"/>
    <path id="Trazado_23" data-name="Trazado 23" d="M653.937.565a7.117,7.117,0,0,1,2.335,1.564,7.278,7.278,0,0,1,1.553,2.346,7.38,7.38,0,0,1,.564,2.889,7.362,7.362,0,0,1-.564,2.9,7.146,7.146,0,0,1-3.889,3.881,7.806,7.806,0,0,1-5.821,0,7.157,7.157,0,0,1-3.891-3.881,7.4,7.4,0,0,1-.564-2.9,7.413,7.413,0,0,1,.564-2.889,7.269,7.269,0,0,1,1.555-2.346A7.079,7.079,0,0,1,648.116.565a7.784,7.784,0,0,1,5.821,0m-5.4.98a6.059,6.059,0,0,0-3.267,3.346,6.531,6.531,0,0,0-.465,2.473,6.543,6.543,0,0,0,.465,2.475,6.073,6.073,0,0,0,3.267,3.346,6.245,6.245,0,0,0,6.919-1.347,6.242,6.242,0,0,0,1.307-2,6.42,6.42,0,0,0,.474-2.475,6.409,6.409,0,0,0-.474-2.473,6.259,6.259,0,0,0-1.307-2,6.331,6.331,0,0,0-6.919-1.345m-.188,10.075V3.108h3.266a3.068,3.068,0,0,1,2.109.6,2.247,2.247,0,0,1,.664,1.751,2.585,2.585,0,0,1-.168.97,2,2,0,0,1-.465.7,2.274,2.274,0,0,1-.684.456,3.75,3.75,0,0,1-.822.248l2.535,3.78H653.56l-2.4-3.78H649.4v3.78Zm3.375-4.7a2.7,2.7,0,0,0,.821-.168,1.236,1.236,0,0,0,.575-.445,1.437,1.437,0,0,0,.218-.842,1.41,1.41,0,0,0-.168-.732,1.3,1.3,0,0,0-.456-.446,1.854,1.854,0,0,0-.643-.227,4.462,4.462,0,0,0-.753-.06H649.4V6.948h1.385c.317,0,.632-.009.941-.03" transform="translate(-96.397 0)" fill="#14fe7d"/>
  </g>
</svg>
